<svg width="1825" height="395" viewBox="0 0 1825 395" version="1.1" xmlns="http://www.w3.org/2000/svg" xmlns:xlink="http://www.w3.org/1999/xlink">
<title>logo-menu</title>
<desc>Created using Figma</desc>
<g id="Canvas" transform="translate(127 -719)">
<clipPath id="clip-0" clip-rule="evenodd">
<path d="M -127 719L 1698 719L 1698 1114L -127 1114L -127 719Z" fill="#FFFFFF"/>
</clipPath>
<g id="logo-menu" clip-path="url(#clip-0)">
<g id="Group">
<g id="Ellipse">
<use xlink:href="#path0_fill" transform="translate(-55 743)" fill="#6ECFF5"/>
</g>
<g id="Ellipse 2">
<use xlink:href="#path1_fill" transform="translate(-46.6577 748.3)" fill="#ACE2FA"/>
</g>
</g>
<g id="TrustCleanz">
<use xlink:href="#path2_fill" transform="translate(222 736)" fill="#333333"/>
</g>
</g>
</g>
<defs>
<path id="path0_fill" d="M 113 315C 175.408 315 226 264.487 226 202.175C 226 185.865 222.534 170.363 216.296 156.364C 181.217 82.13 143.928 19.7777 114.896 0C 133.766 52.8172 135.861 75.0209 141.44 116.232C 142.38 146.443 136.755 158.35 122.859 176.43C 108.123 187.381 100.028 191.206 85.698 196.496C 74.5374 197.982 67.8604 198.378 53.4664 196.496C 43.7162 194.01 38.2389 191.726 28.4396 185.138C 21.2692 181.837 11.755 169.994 11.755 169.994C 4.41579 180.965 2.61517 188.841 0 202.175C 0 264.487 50.5918 315 113 315Z"/>
<path id="path1_fill" d="M 63.3255 178.702C 98.2992 178.702 126.651 151.581 126.651 118.125C 126.651 114.509 126.32 110.966 125.685 107.524C 119.002 63.2748 113.391 32.5585 100.487 0C 101.726 13.5949 100.673 19.0905 97.453 27.2596C 87.8753 39.7369 81.1084 45.4172 66.7383 53.3834C 41.5235 65.2892 30.075 71.9179 13.651 83.6719C 6.44851 90.4957 4.08789 94.5801 2.20427 102.224C 0.766986 107.291 0 112.622 0 118.125C 0 151.581 28.3518 178.702 63.3255 178.702Z"/>
<path id="path2_fill" d="M 76.032 268L 51.84 268C 47.616 268 45.504 265.984 45.504 261.952L 45.504 117.664C 45.504 115.552 44.448 114.496 42.336 114.496L 9.504 114.496C 5.472 114.496 3.456 112.48 3.456 108.448L 3.456 88.864C 3.456 84.832 5.472 82.816 9.504 82.816L 118.368 82.816C 122.4 82.816 124.416 84.832 124.416 88.864L 124.416 108.448C 124.416 112.48 122.4 114.496 118.368 114.496L 85.536 114.496C 83.232 114.496 82.08 115.552 82.08 117.664L 82.08 261.952C 82.08 265.984 80.064 268 76.032 268ZM 174.055 268L 149.575 268C 145.543 268 143.527 265.984 143.527 261.952L 143.527 127.168C 143.527 123.136 145.543 121.12 149.575 121.12L 174.055 121.12C 178.087 121.12 180.103 123.136 180.103 127.168L 180.103 136.96L 181.256 136.96C 183.367 131.776 187.111 127.84 192.487 125.152C 197.863 122.464 203.527 121.12 209.48 121.12L 219.847 121.12C 223.688 121.12 225.608 123.136 225.608 127.168L 225.608 147.04C 225.608 149.344 225.128 150.976 224.168 151.936C 223.4 152.704 221.959 152.992 219.847 152.8L 199.975 152.8C 186.727 152.8 180.103 160.288 180.103 175.264L 180.103 261.952C 180.103 265.984 178.087 268 174.055 268ZM 296.926 268L 287.422 268C 272.638 268 261.406 263.968 253.726 255.904C 246.238 247.84 242.494 236.224 242.494 221.056L 242.494 127.168C 242.494 123.136 244.51 121.12 248.542 121.12L 273.022 121.12C 277.054 121.12 279.07 123.136 279.07 127.168L 279.07 219.328C 279.07 225.472 280.318 229.888 282.814 232.576C 285.502 235.072 289.822 236.32 295.774 236.32L 306.43 236.32C 319.678 236.32 326.302 229.024 326.302 214.432L 326.302 127.168C 326.302 123.136 328.318 121.12 332.35 121.12L 356.542 121.12C 360.766 121.12 362.878 123.136 362.878 127.168L 362.878 261.952C 362.878 265.984 360.766 268 356.542 268L 332.35 268C 328.318 268 326.302 265.984 326.302 261.952L 326.302 252.448L 325.15 252.448C 323.038 257.632 319.294 261.568 313.918 264.256C 308.542 266.752 302.878 268 296.926 268ZM 450.268 268L 395.548 268C 391.708 268 389.788 265.984 389.788 261.952L 389.788 243.52C 389.788 241.408 390.172 239.968 390.94 239.2C 391.708 238.24 393.244 237.76 395.548 237.76L 443.644 237.76C 453.052 237.76 457.756 234.88 457.756 229.12L 457.756 227.68C 457.756 223.072 453.82 218.656 445.948 214.432L 417.436 198.592C 407.644 193.6 400.444 188.224 395.836 182.464C 391.228 176.704 388.924 169.312 388.924 160.288C 388.924 146.848 392.476 136.96 399.58 130.624C 406.684 124.288 417.82 121.12 432.988 121.12L 481.084 121.12C 484.924 121.12 486.844 123.136 486.844 127.168L 486.844 145.888C 486.844 148 486.46 149.536 485.692 150.496C 484.924 151.264 483.388 151.648 481.084 151.648L 441.052 151.648C 431.644 151.648 426.94 154.048 426.94 158.848L 426.94 160.288C 426.94 164.512 431.068 168.832 439.324 173.248L 468.412 190.528C 478.396 195.904 485.404 201.472 489.436 207.232C 493.468 212.8 495.484 220.192 495.484 229.408C 495.484 255.136 480.412 268 450.268 268ZM 524.133 152.8L 512.613 152.8C 510.309 152.8 508.677 152.416 507.717 151.648C 506.949 150.88 506.565 149.344 506.565 147.04L 506.565 127.168C 506.565 123.136 508.581 121.12 512.613 121.12L 524.133 121.12C 526.245 121.12 527.301 120.064 527.301 117.952L 527.301 90.592C 527.301 86.56 529.413 84.544 533.637 84.544L 557.829 84.544C 561.861 84.544 563.877 86.56 563.877 90.592L 563.877 117.952C 563.877 120.064 565.029 121.12 567.333 121.12L 589.797 121.12C 593.829 121.12 595.845 123.136 595.845 127.168L 595.845 147.04C 595.845 149.152 595.365 150.688 594.405 151.648C 593.637 152.416 592.101 152.8 589.797 152.8L 567.333 152.8C 565.029 152.8 563.877 153.856 563.877 155.968L 563.877 219.616C 563.877 225.568 565.221 229.888 567.909 232.576C 570.597 235.072 575.013 236.32 581.157 236.32L 592.677 236.32C 596.709 236.32 598.725 238.336 598.725 242.368L 598.725 262.24C 598.725 264.352 598.245 265.888 597.285 266.848C 596.517 267.616 594.981 268 592.677 268L 575.109 268C 559.941 268 548.133 263.968 539.685 255.904C 531.429 247.84 527.301 236.32 527.301 221.344L 527.301 155.968C 527.301 153.856 526.245 152.8 524.133 152.8ZM 701.408 268L 670.016 268C 654.848 268 643.136 263.968 634.88 255.904C 626.624 247.84 622.496 236.224 622.496 221.056L 622.496 129.76C 622.496 114.592 626.624 102.976 634.88 94.912C 643.136 86.848 654.848 82.816 670.016 82.816L 701.408 82.816C 716.384 82.816 728 86.944 736.256 95.2C 744.704 103.264 748.928 114.784 748.928 129.76L 748.928 143.296C 748.928 147.52 746.816 149.632 742.592 149.632L 718.4 149.632C 714.368 149.632 712.352 147.52 712.352 143.296L 712.352 131.488C 712.352 125.344 711.008 121.024 708.32 118.528C 705.824 115.84 701.504 114.496 695.36 114.496L 675.776 114.496C 669.824 114.496 665.504 115.84 662.816 118.528C 660.32 121.024 659.072 125.344 659.072 131.488L 659.072 219.328C 659.072 225.472 660.32 229.888 662.816 232.576C 665.504 235.072 669.824 236.32 675.776 236.32L 695.36 236.32C 701.504 236.32 705.824 235.072 708.32 232.576C 711.008 229.888 712.352 225.472 712.352 219.328L 712.352 207.52C 712.352 203.296 714.368 201.184 718.4 201.184L 742.592 201.184C 746.816 201.184 748.928 203.296 748.928 207.52L 748.928 221.056C 748.928 236.032 744.704 247.648 736.256 255.904C 728 263.968 716.384 268 701.408 268ZM 809.433 268L 784.953 268C 780.921 268 778.905 265.984 778.905 261.952L 778.905 71.584C 778.905 67.552 780.921 65.536 784.953 65.536L 809.433 65.536C 813.465 65.536 815.481 67.552 815.481 71.584L 815.481 261.952C 815.481 265.984 813.465 268 809.433 268ZM 956.909 268L 893.261 268C 878.093 268 866.381 263.968 858.125 255.904C 849.869 247.84 845.741 236.224 845.741 221.056L 845.741 168.064C 845.741 152.896 849.869 141.28 858.125 133.216C 866.381 125.152 878.093 121.12 893.261 121.12L 916.013 121.12C 931.181 121.12 942.893 125.152 951.149 133.216C 959.405 141.28 963.533 152.896 963.533 168.064L 963.533 204.64C 963.533 208.672 961.517 210.688 957.485 210.688L 885.197 210.688C 882.893 210.688 881.741 211.744 881.741 213.856L 881.741 220.192C 881.741 226.144 882.989 230.464 885.485 233.152C 888.173 235.648 892.589 236.896 898.733 236.896L 956.909 236.896C 960.941 236.896 962.957 239.008 962.957 243.232L 962.957 262.24C 962.957 264.352 962.477 265.888 961.517 266.848C 960.749 267.616 959.213 268 956.909 268ZM 885.197 186.208L 924.365 186.208C 926.477 186.208 927.533 185.152 927.533 183.04L 927.533 169.216C 927.533 163.072 926.285 158.752 923.789 156.256C 921.293 153.76 916.973 152.512 910.829 152.512L 898.733 152.512C 892.589 152.512 888.269 153.76 885.773 156.256C 883.277 158.752 882.029 163.072 882.029 169.216L 882.029 183.04C 882.029 185.152 883.085 186.208 885.197 186.208ZM 1042.49 268L 1035.57 268C 1020.41 268 1008.69 263.968 1000.44 255.904C 992.182 247.84 988.054 236.224 988.054 221.056L 988.054 168.064C 988.054 152.896 992.182 141.28 1000.44 133.216C 1008.69 125.152 1020.41 121.12 1035.57 121.12L 1102.1 121.12C 1106.33 121.12 1108.44 123.136 1108.44 127.168L 1108.44 261.952C 1108.44 265.984 1106.33 268 1102.1 268L 1077.91 268C 1073.88 268 1071.86 265.984 1071.86 261.952L 1071.86 252.448L 1070.71 252.448C 1068.6 257.632 1064.85 261.568 1059.48 264.256C 1054.1 266.752 1048.44 268 1042.49 268ZM 1071.86 214.432L 1071.86 155.968C 1071.86 153.856 1070.71 152.8 1068.41 152.8L 1041.33 152.8C 1035.19 152.8 1030.87 154.144 1028.37 156.832C 1025.88 159.328 1024.63 163.648 1024.63 169.792L 1024.63 219.328C 1024.63 225.472 1025.88 229.888 1028.37 232.576C 1030.87 235.072 1035.19 236.32 1041.33 236.32L 1051.99 236.32C 1065.24 236.32 1071.86 229.024 1071.86 214.432ZM 1170.52 268L 1146.04 268C 1142.01 268 1140 265.984 1140 261.952L 1140 127.168C 1140 123.136 1142.01 121.12 1146.04 121.12L 1170.52 121.12C 1174.56 121.12 1176.57 123.136 1176.57 127.168L 1176.57 136.672L 1177.72 136.672C 1181.95 126.304 1191.36 121.12 1205.95 121.12L 1215.16 121.12C 1245.31 121.12 1260.38 136.768 1260.38 168.064L 1260.38 261.952C 1260.38 265.984 1258.27 268 1254.04 268L 1229.85 268C 1225.82 268 1223.8 265.984 1223.8 261.952L 1223.8 169.792C 1223.8 163.648 1222.46 159.328 1219.77 156.832C 1217.28 154.144 1212.96 152.8 1206.81 152.8L 1196.44 152.8C 1183.2 152.8 1176.57 160.096 1176.57 174.688L 1176.57 261.952C 1176.57 265.984 1174.56 268 1170.52 268ZM 1283.83 261.952L 1283.83 252.448C 1283.83 245.92 1285.66 240.352 1289.31 235.744L 1350.36 153.664L 1350.36 152.512L 1292.47 152.512C 1288.44 152.512 1286.43 150.4 1286.43 146.176L 1286.43 127.168C 1286.43 123.136 1288.44 121.12 1292.47 121.12L 1386.36 121.12C 1390.39 121.12 1392.41 123.136 1392.41 127.168L 1392.41 144.448C 1392.41 150.592 1390.87 155.584 1387.8 159.424L 1331.35 235.456L 1331.35 236.608L 1389.53 236.608C 1393.56 236.608 1395.58 238.72 1395.58 242.944L 1395.58 261.952C 1395.58 265.984 1393.56 268 1389.53 268L 1289.88 268C 1285.85 268 1283.83 265.984 1283.83 261.952Z"/>
</defs>
</svg>
